<mxfile host="app.diagrams.net" modified="2023-04-06T21:42:10.513Z" agent="Mozilla/5.0 (Windows NT 10.0; Win64; x64) AppleWebKit/537.36 (KHTML, like Gecko) Chrome/111.0.0.0 Safari/537.36" etag="FHmx8o_FnjcZIqztBrBx" version="21.1.4" type="device">
  <diagram name="Page-1" id="da9doyzOgaCknHxonbGF">
    <mxGraphModel dx="1869" dy="482" grid="1" gridSize="10" guides="1" tooltips="1" connect="1" arrows="1" fold="1" page="1" pageScale="1" pageWidth="850" pageHeight="1100" math="0" shadow="0">
      <root>
        <mxCell id="0" />
        <mxCell id="1" parent="0" />
        <mxCell id="PZsRNkrMyilEUVOkhPmK-52" style="edgeStyle=orthogonalEdgeStyle;rounded=0;orthogonalLoop=1;jettySize=auto;html=1;exitX=0.5;exitY=0;exitDx=0;exitDy=0;endArrow=none;endFill=0;" edge="1" parent="1" source="PZsRNkrMyilEUVOkhPmK-1" target="PZsRNkrMyilEUVOkhPmK-5">
          <mxGeometry relative="1" as="geometry" />
        </mxCell>
        <mxCell id="PZsRNkrMyilEUVOkhPmK-53" style="rounded=0;orthogonalLoop=1;jettySize=auto;html=1;exitX=0.75;exitY=0;exitDx=0;exitDy=0;entryX=0;entryY=0.5;entryDx=0;entryDy=0;endArrow=none;endFill=0;" edge="1" parent="1" source="PZsRNkrMyilEUVOkhPmK-1" target="PZsRNkrMyilEUVOkhPmK-16">
          <mxGeometry relative="1" as="geometry" />
        </mxCell>
        <mxCell id="PZsRNkrMyilEUVOkhPmK-1" value="Tenant" style="swimlane;fontStyle=0;childLayout=stackLayout;horizontal=1;startSize=30;horizontalStack=0;resizeParent=1;resizeParentMax=0;resizeLast=0;collapsible=1;marginBottom=0;whiteSpace=wrap;html=1;" vertex="1" parent="1">
          <mxGeometry x="350" y="260" width="140" height="120" as="geometry" />
        </mxCell>
        <mxCell id="PZsRNkrMyilEUVOkhPmK-2" value="- name" style="text;strokeColor=none;fillColor=none;align=left;verticalAlign=middle;spacingLeft=4;spacingRight=4;overflow=hidden;points=[[0,0.5],[1,0.5]];portConstraint=eastwest;rotatable=0;whiteSpace=wrap;html=1;" vertex="1" parent="PZsRNkrMyilEUVOkhPmK-1">
          <mxGeometry y="30" width="140" height="30" as="geometry" />
        </mxCell>
        <mxCell id="PZsRNkrMyilEUVOkhPmK-3" value="- phoneNumber" style="text;strokeColor=none;fillColor=none;align=left;verticalAlign=middle;spacingLeft=4;spacingRight=4;overflow=hidden;points=[[0,0.5],[1,0.5]];portConstraint=eastwest;rotatable=0;whiteSpace=wrap;html=1;" vertex="1" parent="PZsRNkrMyilEUVOkhPmK-1">
          <mxGeometry y="60" width="140" height="30" as="geometry" />
        </mxCell>
        <mxCell id="PZsRNkrMyilEUVOkhPmK-4" value="- EID number" style="text;strokeColor=none;fillColor=none;align=left;verticalAlign=middle;spacingLeft=4;spacingRight=4;overflow=hidden;points=[[0,0.5],[1,0.5]];portConstraint=eastwest;rotatable=0;whiteSpace=wrap;html=1;" vertex="1" parent="PZsRNkrMyilEUVOkhPmK-1">
          <mxGeometry y="90" width="140" height="30" as="geometry" />
        </mxCell>
        <mxCell id="PZsRNkrMyilEUVOkhPmK-5" value="Appointment" style="swimlane;fontStyle=0;childLayout=stackLayout;horizontal=1;startSize=30;horizontalStack=0;resizeParent=1;resizeParentMax=0;resizeLast=0;collapsible=1;marginBottom=0;whiteSpace=wrap;html=1;" vertex="1" parent="1">
          <mxGeometry x="350" y="60" width="140" height="90" as="geometry" />
        </mxCell>
        <mxCell id="PZsRNkrMyilEUVOkhPmK-6" value="- Date" style="text;strokeColor=none;fillColor=none;align=left;verticalAlign=middle;spacingLeft=4;spacingRight=4;overflow=hidden;points=[[0,0.5],[1,0.5]];portConstraint=eastwest;rotatable=0;whiteSpace=wrap;html=1;" vertex="1" parent="PZsRNkrMyilEUVOkhPmK-5">
          <mxGeometry y="30" width="140" height="30" as="geometry" />
        </mxCell>
        <mxCell id="PZsRNkrMyilEUVOkhPmK-7" value="- PropertyToSee" style="text;strokeColor=none;fillColor=none;align=left;verticalAlign=middle;spacingLeft=4;spacingRight=4;overflow=hidden;points=[[0,0.5],[1,0.5]];portConstraint=eastwest;rotatable=0;whiteSpace=wrap;html=1;" vertex="1" parent="PZsRNkrMyilEUVOkhPmK-5">
          <mxGeometry y="60" width="140" height="30" as="geometry" />
        </mxCell>
        <mxCell id="PZsRNkrMyilEUVOkhPmK-10" value="Leasing Agent" style="swimlane;fontStyle=0;childLayout=stackLayout;horizontal=1;startSize=30;horizontalStack=0;resizeParent=1;resizeParentMax=0;resizeLast=0;collapsible=1;marginBottom=0;whiteSpace=wrap;html=1;" vertex="1" parent="1">
          <mxGeometry x="50" y="60" width="140" height="120" as="geometry" />
        </mxCell>
        <mxCell id="PZsRNkrMyilEUVOkhPmK-14" value="Notification" style="swimlane;fontStyle=0;childLayout=stackLayout;horizontal=1;startSize=30;horizontalStack=0;resizeParent=1;resizeParentMax=0;resizeLast=0;collapsible=1;marginBottom=0;whiteSpace=wrap;html=1;" vertex="1" parent="1">
          <mxGeometry x="650" y="60" width="140" height="120" as="geometry" />
        </mxCell>
        <mxCell id="PZsRNkrMyilEUVOkhPmK-15" value="- Sender" style="text;strokeColor=none;fillColor=none;align=left;verticalAlign=middle;spacingLeft=4;spacingRight=4;overflow=hidden;points=[[0,0.5],[1,0.5]];portConstraint=eastwest;rotatable=0;whiteSpace=wrap;html=1;" vertex="1" parent="PZsRNkrMyilEUVOkhPmK-14">
          <mxGeometry y="30" width="140" height="30" as="geometry" />
        </mxCell>
        <mxCell id="PZsRNkrMyilEUVOkhPmK-16" value="- DateSent" style="text;strokeColor=none;fillColor=none;align=left;verticalAlign=middle;spacingLeft=4;spacingRight=4;overflow=hidden;points=[[0,0.5],[1,0.5]];portConstraint=eastwest;rotatable=0;whiteSpace=wrap;html=1;" vertex="1" parent="PZsRNkrMyilEUVOkhPmK-14">
          <mxGeometry y="60" width="140" height="30" as="geometry" />
        </mxCell>
        <mxCell id="PZsRNkrMyilEUVOkhPmK-17" value="- Message" style="text;strokeColor=none;fillColor=none;align=left;verticalAlign=middle;spacingLeft=4;spacingRight=4;overflow=hidden;points=[[0,0.5],[1,0.5]];portConstraint=eastwest;rotatable=0;whiteSpace=wrap;html=1;" vertex="1" parent="PZsRNkrMyilEUVOkhPmK-14">
          <mxGeometry y="90" width="140" height="30" as="geometry" />
        </mxCell>
        <mxCell id="PZsRNkrMyilEUVOkhPmK-18" value="Payment" style="swimlane;fontStyle=0;childLayout=stackLayout;horizontal=1;startSize=30;horizontalStack=0;resizeParent=1;resizeParentMax=0;resizeLast=0;collapsible=1;marginBottom=0;whiteSpace=wrap;html=1;" vertex="1" parent="1">
          <mxGeometry x="50" y="260" width="140" height="150" as="geometry" />
        </mxCell>
        <mxCell id="PZsRNkrMyilEUVOkhPmK-65" style="edgeStyle=orthogonalEdgeStyle;rounded=0;orthogonalLoop=1;jettySize=auto;html=1;exitX=0.5;exitY=0;exitDx=0;exitDy=0;endArrow=none;endFill=0;" edge="1" parent="1" source="PZsRNkrMyilEUVOkhPmK-22" target="PZsRNkrMyilEUVOkhPmK-18">
          <mxGeometry relative="1" as="geometry" />
        </mxCell>
        <mxCell id="PZsRNkrMyilEUVOkhPmK-22" value="Bill" style="swimlane;fontStyle=0;childLayout=stackLayout;horizontal=1;startSize=30;horizontalStack=0;resizeParent=1;resizeParentMax=0;resizeLast=0;collapsible=1;marginBottom=0;whiteSpace=wrap;html=1;" vertex="1" parent="1">
          <mxGeometry x="50" y="480" width="140" height="90" as="geometry">
            <mxRectangle x="50" y="480" width="60" height="30" as="alternateBounds" />
          </mxGeometry>
        </mxCell>
        <mxCell id="PZsRNkrMyilEUVOkhPmK-23" value="- totalCharges" style="text;strokeColor=none;fillColor=none;align=left;verticalAlign=middle;spacingLeft=4;spacingRight=4;overflow=hidden;points=[[0,0.5],[1,0.5]];portConstraint=eastwest;rotatable=0;whiteSpace=wrap;html=1;" vertex="1" parent="PZsRNkrMyilEUVOkhPmK-22">
          <mxGeometry y="30" width="140" height="30" as="geometry" />
        </mxCell>
        <mxCell id="PZsRNkrMyilEUVOkhPmK-86" value="- dueDate" style="text;strokeColor=none;fillColor=none;align=left;verticalAlign=middle;spacingLeft=4;spacingRight=4;overflow=hidden;points=[[0,0.5],[1,0.5]];portConstraint=eastwest;rotatable=0;whiteSpace=wrap;html=1;" vertex="1" parent="PZsRNkrMyilEUVOkhPmK-22">
          <mxGeometry y="60" width="140" height="30" as="geometry" />
        </mxCell>
        <mxCell id="PZsRNkrMyilEUVOkhPmK-64" style="edgeStyle=orthogonalEdgeStyle;rounded=0;orthogonalLoop=1;jettySize=auto;html=1;exitX=0.5;exitY=0;exitDx=0;exitDy=0;endArrow=none;endFill=0;" edge="1" parent="1" source="PZsRNkrMyilEUVOkhPmK-26" target="PZsRNkrMyilEUVOkhPmK-22">
          <mxGeometry relative="1" as="geometry" />
        </mxCell>
        <mxCell id="PZsRNkrMyilEUVOkhPmK-26" value="Discount" style="swimlane;fontStyle=0;childLayout=stackLayout;horizontal=1;startSize=30;horizontalStack=0;resizeParent=1;resizeParentMax=0;resizeLast=0;collapsible=1;marginBottom=0;whiteSpace=wrap;html=1;" vertex="1" parent="1">
          <mxGeometry x="50" y="735" width="140" height="60" as="geometry" />
        </mxCell>
        <mxCell id="PZsRNkrMyilEUVOkhPmK-27" value="- Amount" style="text;strokeColor=none;fillColor=none;align=left;verticalAlign=middle;spacingLeft=4;spacingRight=4;overflow=hidden;points=[[0,0.5],[1,0.5]];portConstraint=eastwest;rotatable=0;whiteSpace=wrap;html=1;" vertex="1" parent="PZsRNkrMyilEUVOkhPmK-26">
          <mxGeometry y="30" width="140" height="30" as="geometry" />
        </mxCell>
        <mxCell id="PZsRNkrMyilEUVOkhPmK-55" style="edgeStyle=orthogonalEdgeStyle;rounded=0;orthogonalLoop=1;jettySize=auto;html=1;exitX=0.5;exitY=0;exitDx=0;exitDy=0;endArrow=none;endFill=0;" edge="1" parent="1" source="PZsRNkrMyilEUVOkhPmK-30" target="PZsRNkrMyilEUVOkhPmK-1">
          <mxGeometry relative="1" as="geometry" />
        </mxCell>
        <mxCell id="PZsRNkrMyilEUVOkhPmK-30" value="Application" style="swimlane;fontStyle=0;childLayout=stackLayout;horizontal=1;startSize=30;horizontalStack=0;resizeParent=1;resizeParentMax=0;resizeLast=0;collapsible=1;marginBottom=0;whiteSpace=wrap;html=1;" vertex="1" parent="1">
          <mxGeometry x="350" y="480" width="140" height="60" as="geometry" />
        </mxCell>
        <mxCell id="PZsRNkrMyilEUVOkhPmK-89" value="- status" style="text;strokeColor=none;fillColor=none;align=left;verticalAlign=middle;spacingLeft=4;spacingRight=4;overflow=hidden;points=[[0,0.5],[1,0.5]];portConstraint=eastwest;rotatable=0;whiteSpace=wrap;html=1;" vertex="1" parent="PZsRNkrMyilEUVOkhPmK-30">
          <mxGeometry y="30" width="140" height="30" as="geometry" />
        </mxCell>
        <mxCell id="PZsRNkrMyilEUVOkhPmK-60" style="edgeStyle=orthogonalEdgeStyle;rounded=0;orthogonalLoop=1;jettySize=auto;html=1;exitX=0.5;exitY=0;exitDx=0;exitDy=0;endArrow=none;endFill=0;" edge="1" parent="1" source="PZsRNkrMyilEUVOkhPmK-34" target="PZsRNkrMyilEUVOkhPmK-30">
          <mxGeometry relative="1" as="geometry" />
        </mxCell>
        <mxCell id="PZsRNkrMyilEUVOkhPmK-61" style="rounded=0;orthogonalLoop=1;jettySize=auto;html=1;exitX=0.75;exitY=0;exitDx=0;exitDy=0;entryX=0;entryY=0.5;entryDx=0;entryDy=0;endArrow=none;endFill=0;" edge="1" parent="1" source="PZsRNkrMyilEUVOkhPmK-34" target="PZsRNkrMyilEUVOkhPmK-40">
          <mxGeometry relative="1" as="geometry" />
        </mxCell>
        <mxCell id="PZsRNkrMyilEUVOkhPmK-63" style="rounded=0;orthogonalLoop=1;jettySize=auto;html=1;exitX=0.25;exitY=0;exitDx=0;exitDy=0;entryX=1;entryY=0.5;entryDx=0;entryDy=0;endArrow=none;endFill=0;" edge="1" parent="1" source="PZsRNkrMyilEUVOkhPmK-34">
          <mxGeometry relative="1" as="geometry">
            <mxPoint x="190" y="555" as="targetPoint" />
          </mxGeometry>
        </mxCell>
        <mxCell id="PZsRNkrMyilEUVOkhPmK-34" value="Lease" style="swimlane;fontStyle=0;childLayout=stackLayout;horizontal=1;startSize=30;horizontalStack=0;resizeParent=1;resizeParentMax=0;resizeLast=0;collapsible=1;marginBottom=0;whiteSpace=wrap;html=1;" vertex="1" parent="1">
          <mxGeometry x="350" y="735" width="140" height="150" as="geometry" />
        </mxCell>
        <mxCell id="PZsRNkrMyilEUVOkhPmK-35" value="- TenantID" style="text;strokeColor=none;fillColor=none;align=left;verticalAlign=middle;spacingLeft=4;spacingRight=4;overflow=hidden;points=[[0,0.5],[1,0.5]];portConstraint=eastwest;rotatable=0;whiteSpace=wrap;html=1;" vertex="1" parent="PZsRNkrMyilEUVOkhPmK-34">
          <mxGeometry y="30" width="140" height="30" as="geometry" />
        </mxCell>
        <mxCell id="PZsRNkrMyilEUVOkhPmK-37" value="- Duration" style="text;strokeColor=none;fillColor=none;align=left;verticalAlign=middle;spacingLeft=4;spacingRight=4;overflow=hidden;points=[[0,0.5],[1,0.5]];portConstraint=eastwest;rotatable=0;whiteSpace=wrap;html=1;" vertex="1" parent="PZsRNkrMyilEUVOkhPmK-34">
          <mxGeometry y="60" width="140" height="30" as="geometry" />
        </mxCell>
        <mxCell id="PZsRNkrMyilEUVOkhPmK-85" value="- PaymentOption" style="text;strokeColor=none;fillColor=none;align=left;verticalAlign=middle;spacingLeft=4;spacingRight=4;overflow=hidden;points=[[0,0.5],[1,0.5]];portConstraint=eastwest;rotatable=0;whiteSpace=wrap;html=1;" vertex="1" parent="PZsRNkrMyilEUVOkhPmK-34">
          <mxGeometry y="90" width="140" height="30" as="geometry" />
        </mxCell>
        <mxCell id="PZsRNkrMyilEUVOkhPmK-87" value="- startDate" style="text;strokeColor=none;fillColor=none;align=left;verticalAlign=middle;spacingLeft=4;spacingRight=4;overflow=hidden;points=[[0,0.5],[1,0.5]];portConstraint=eastwest;rotatable=0;whiteSpace=wrap;html=1;" vertex="1" parent="PZsRNkrMyilEUVOkhPmK-34">
          <mxGeometry y="120" width="140" height="30" as="geometry" />
        </mxCell>
        <mxCell id="PZsRNkrMyilEUVOkhPmK-59" style="edgeStyle=orthogonalEdgeStyle;rounded=0;orthogonalLoop=1;jettySize=auto;html=1;exitX=0.5;exitY=0;exitDx=0;exitDy=0;endArrow=none;endFill=0;" edge="1" parent="1" source="PZsRNkrMyilEUVOkhPmK-38" target="PZsRNkrMyilEUVOkhPmK-46">
          <mxGeometry relative="1" as="geometry" />
        </mxCell>
        <mxCell id="PZsRNkrMyilEUVOkhPmK-38" value="Store" style="swimlane;fontStyle=0;childLayout=stackLayout;horizontal=1;startSize=30;horizontalStack=0;resizeParent=1;resizeParentMax=0;resizeLast=0;collapsible=1;marginBottom=0;whiteSpace=wrap;html=1;" vertex="1" parent="1">
          <mxGeometry x="650" y="480" width="140" height="180" as="geometry" />
        </mxCell>
        <mxCell id="PZsRNkrMyilEUVOkhPmK-39" value="- Location" style="text;strokeColor=none;fillColor=none;align=left;verticalAlign=middle;spacingLeft=4;spacingRight=4;overflow=hidden;points=[[0,0.5],[1,0.5]];portConstraint=eastwest;rotatable=0;whiteSpace=wrap;html=1;" vertex="1" parent="PZsRNkrMyilEUVOkhPmK-38">
          <mxGeometry y="30" width="140" height="30" as="geometry" />
        </mxCell>
        <mxCell id="PZsRNkrMyilEUVOkhPmK-40" value="- Space" style="text;strokeColor=none;fillColor=none;align=left;verticalAlign=middle;spacingLeft=4;spacingRight=4;overflow=hidden;points=[[0,0.5],[1,0.5]];portConstraint=eastwest;rotatable=0;whiteSpace=wrap;html=1;" vertex="1" parent="PZsRNkrMyilEUVOkhPmK-38">
          <mxGeometry y="60" width="140" height="30" as="geometry" />
        </mxCell>
        <mxCell id="PZsRNkrMyilEUVOkhPmK-41" value="- Class" style="text;strokeColor=none;fillColor=none;align=left;verticalAlign=middle;spacingLeft=4;spacingRight=4;overflow=hidden;points=[[0,0.5],[1,0.5]];portConstraint=eastwest;rotatable=0;whiteSpace=wrap;html=1;" vertex="1" parent="PZsRNkrMyilEUVOkhPmK-38">
          <mxGeometry y="90" width="140" height="30" as="geometry" />
        </mxCell>
        <mxCell id="PZsRNkrMyilEUVOkhPmK-82" value="- Purpose" style="text;strokeColor=none;fillColor=none;align=left;verticalAlign=middle;spacingLeft=4;spacingRight=4;overflow=hidden;points=[[0,0.5],[1,0.5]];portConstraint=eastwest;rotatable=0;whiteSpace=wrap;html=1;" vertex="1" parent="PZsRNkrMyilEUVOkhPmK-38">
          <mxGeometry y="120" width="140" height="30" as="geometry" />
        </mxCell>
        <mxCell id="PZsRNkrMyilEUVOkhPmK-88" value="- rentalRates (monthly, quarterly, etc.)" style="text;strokeColor=none;fillColor=none;align=left;verticalAlign=middle;spacingLeft=4;spacingRight=4;overflow=hidden;points=[[0,0.5],[1,0.5]];portConstraint=eastwest;rotatable=0;whiteSpace=wrap;html=1;" vertex="1" parent="PZsRNkrMyilEUVOkhPmK-38">
          <mxGeometry y="150" width="140" height="30" as="geometry" />
        </mxCell>
        <mxCell id="PZsRNkrMyilEUVOkhPmK-62" style="edgeStyle=orthogonalEdgeStyle;rounded=0;orthogonalLoop=1;jettySize=auto;html=1;exitX=0.5;exitY=0;exitDx=0;exitDy=0;endArrow=none;endFill=0;" edge="1" parent="1" source="PZsRNkrMyilEUVOkhPmK-42" target="PZsRNkrMyilEUVOkhPmK-38">
          <mxGeometry relative="1" as="geometry" />
        </mxCell>
        <mxCell id="PZsRNkrMyilEUVOkhPmK-42" value="Mall" style="swimlane;fontStyle=0;childLayout=stackLayout;horizontal=1;startSize=30;horizontalStack=0;resizeParent=1;resizeParentMax=0;resizeLast=0;collapsible=1;marginBottom=0;whiteSpace=wrap;html=1;" vertex="1" parent="1">
          <mxGeometry x="650" y="735" width="140" height="90" as="geometry" />
        </mxCell>
        <mxCell id="PZsRNkrMyilEUVOkhPmK-43" value="- Name" style="text;strokeColor=none;fillColor=none;align=left;verticalAlign=middle;spacingLeft=4;spacingRight=4;overflow=hidden;points=[[0,0.5],[1,0.5]];portConstraint=eastwest;rotatable=0;whiteSpace=wrap;html=1;" vertex="1" parent="PZsRNkrMyilEUVOkhPmK-42">
          <mxGeometry y="30" width="140" height="30" as="geometry" />
        </mxCell>
        <mxCell id="PZsRNkrMyilEUVOkhPmK-44" value="- Address" style="text;strokeColor=none;fillColor=none;align=left;verticalAlign=middle;spacingLeft=4;spacingRight=4;overflow=hidden;points=[[0,0.5],[1,0.5]];portConstraint=eastwest;rotatable=0;whiteSpace=wrap;html=1;" vertex="1" parent="PZsRNkrMyilEUVOkhPmK-42">
          <mxGeometry y="60" width="140" height="30" as="geometry" />
        </mxCell>
        <mxCell id="PZsRNkrMyilEUVOkhPmK-46" value="Maintenance Request" style="swimlane;fontStyle=0;childLayout=stackLayout;horizontal=1;startSize=30;horizontalStack=0;resizeParent=1;resizeParentMax=0;resizeLast=0;collapsible=1;marginBottom=0;whiteSpace=wrap;html=1;" vertex="1" parent="1">
          <mxGeometry x="650" y="260" width="140" height="150" as="geometry" />
        </mxCell>
        <mxCell id="PZsRNkrMyilEUVOkhPmK-47" value="- PropertyToFix" style="text;strokeColor=none;fillColor=none;align=left;verticalAlign=middle;spacingLeft=4;spacingRight=4;overflow=hidden;points=[[0,0.5],[1,0.5]];portConstraint=eastwest;rotatable=0;whiteSpace=wrap;html=1;" vertex="1" parent="PZsRNkrMyilEUVOkhPmK-46">
          <mxGeometry y="30" width="140" height="30" as="geometry" />
        </mxCell>
        <mxCell id="PZsRNkrMyilEUVOkhPmK-48" value="- ProblemDescription" style="text;strokeColor=none;fillColor=none;align=left;verticalAlign=middle;spacingLeft=4;spacingRight=4;overflow=hidden;points=[[0,0.5],[1,0.5]];portConstraint=eastwest;rotatable=0;whiteSpace=wrap;html=1;" vertex="1" parent="PZsRNkrMyilEUVOkhPmK-46">
          <mxGeometry y="60" width="140" height="30" as="geometry" />
        </mxCell>
        <mxCell id="PZsRNkrMyilEUVOkhPmK-49" value="- EmergencyStatus" style="text;strokeColor=none;fillColor=none;align=left;verticalAlign=middle;spacingLeft=4;spacingRight=4;overflow=hidden;points=[[0,0.5],[1,0.5]];portConstraint=eastwest;rotatable=0;whiteSpace=wrap;html=1;" vertex="1" parent="PZsRNkrMyilEUVOkhPmK-46">
          <mxGeometry y="90" width="140" height="30" as="geometry" />
        </mxCell>
        <mxCell id="PZsRNkrMyilEUVOkhPmK-67" value="- Maintenance Charges" style="text;strokeColor=none;fillColor=none;align=left;verticalAlign=middle;spacingLeft=4;spacingRight=4;overflow=hidden;points=[[0,0.5],[1,0.5]];portConstraint=eastwest;rotatable=0;whiteSpace=wrap;html=1;" vertex="1" parent="PZsRNkrMyilEUVOkhPmK-46">
          <mxGeometry y="120" width="140" height="30" as="geometry" />
        </mxCell>
        <mxCell id="PZsRNkrMyilEUVOkhPmK-50" style="edgeStyle=orthogonalEdgeStyle;rounded=0;orthogonalLoop=1;jettySize=auto;html=1;entryX=0;entryY=0.5;entryDx=0;entryDy=0;endArrow=none;endFill=0;" edge="1" parent="1" target="PZsRNkrMyilEUVOkhPmK-7">
          <mxGeometry relative="1" as="geometry">
            <mxPoint x="190" y="135" as="sourcePoint" />
          </mxGeometry>
        </mxCell>
        <mxCell id="PZsRNkrMyilEUVOkhPmK-57" style="rounded=0;orthogonalLoop=1;jettySize=auto;html=1;entryX=0;entryY=0.5;entryDx=0;entryDy=0;endArrow=none;endFill=0;" edge="1" parent="1" source="PZsRNkrMyilEUVOkhPmK-4" target="PZsRNkrMyilEUVOkhPmK-40">
          <mxGeometry relative="1" as="geometry" />
        </mxCell>
        <mxCell id="PZsRNkrMyilEUVOkhPmK-58" style="edgeStyle=orthogonalEdgeStyle;rounded=0;orthogonalLoop=1;jettySize=auto;html=1;exitX=1;exitY=0.5;exitDx=0;exitDy=0;entryX=0;entryY=0.5;entryDx=0;entryDy=0;endArrow=none;endFill=0;" edge="1" parent="1" source="PZsRNkrMyilEUVOkhPmK-3" target="PZsRNkrMyilEUVOkhPmK-48">
          <mxGeometry relative="1" as="geometry" />
        </mxCell>
        <mxCell id="PZsRNkrMyilEUVOkhPmK-68" style="edgeStyle=orthogonalEdgeStyle;rounded=0;orthogonalLoop=1;jettySize=auto;html=1;exitX=1;exitY=0.5;exitDx=0;exitDy=0;entryX=0;entryY=0.5;entryDx=0;entryDy=0;endArrow=none;endFill=0;" edge="1" parent="1" source="PZsRNkrMyilEUVOkhPmK-49">
          <mxGeometry relative="1" as="geometry">
            <mxPoint x="50" y="555" as="targetPoint" />
            <Array as="points">
              <mxPoint x="830" y="365" />
              <mxPoint x="830" y="950" />
              <mxPoint x="20" y="950" />
              <mxPoint x="20" y="555" />
            </Array>
          </mxGeometry>
        </mxCell>
        <mxCell id="PZsRNkrMyilEUVOkhPmK-71" value="Accountant" style="swimlane;fontStyle=0;childLayout=stackLayout;horizontal=1;startSize=30;horizontalStack=0;resizeParent=1;resizeParentMax=0;resizeLast=0;collapsible=1;marginBottom=0;whiteSpace=wrap;html=1;" vertex="1" parent="1">
          <mxGeometry x="-210" y="480" width="140" height="60" as="geometry" />
        </mxCell>
        <mxCell id="PZsRNkrMyilEUVOkhPmK-75" value="Technician" style="swimlane;fontStyle=0;childLayout=stackLayout;horizontal=1;startSize=30;horizontalStack=0;resizeParent=1;resizeParentMax=0;resizeLast=0;collapsible=1;marginBottom=0;whiteSpace=wrap;html=1;" vertex="1" parent="1">
          <mxGeometry x="910" y="290" width="140" height="60" as="geometry" />
        </mxCell>
        <mxCell id="PZsRNkrMyilEUVOkhPmK-80" style="rounded=0;orthogonalLoop=1;jettySize=auto;html=1;exitX=1;exitY=0.5;exitDx=0;exitDy=0;entryX=0;entryY=0.5;entryDx=0;entryDy=0;endArrow=none;endFill=0;" edge="1" parent="1" target="PZsRNkrMyilEUVOkhPmK-23">
          <mxGeometry relative="1" as="geometry">
            <mxPoint x="-70" y="525" as="sourcePoint" />
          </mxGeometry>
        </mxCell>
        <mxCell id="PZsRNkrMyilEUVOkhPmK-81" style="rounded=0;orthogonalLoop=1;jettySize=auto;html=1;exitX=0;exitY=0.5;exitDx=0;exitDy=0;entryX=1;entryY=0.5;entryDx=0;entryDy=0;endArrow=none;endFill=0;" edge="1" parent="1" target="PZsRNkrMyilEUVOkhPmK-48">
          <mxGeometry relative="1" as="geometry">
            <mxPoint x="910" y="335" as="sourcePoint" />
          </mxGeometry>
        </mxCell>
        <mxCell id="PZsRNkrMyilEUVOkhPmK-91" value="Receipt" style="swimlane;fontStyle=0;childLayout=stackLayout;horizontal=1;startSize=30;horizontalStack=0;resizeParent=1;resizeParentMax=0;resizeLast=0;collapsible=1;marginBottom=0;whiteSpace=wrap;html=1;" vertex="1" parent="1">
          <mxGeometry x="-210" y="260" width="140" height="120" as="geometry" />
        </mxCell>
        <mxCell id="PZsRNkrMyilEUVOkhPmK-92" value="- amountPaid" style="text;strokeColor=none;fillColor=none;align=left;verticalAlign=middle;spacingLeft=4;spacingRight=4;overflow=hidden;points=[[0,0.5],[1,0.5]];portConstraint=eastwest;rotatable=0;whiteSpace=wrap;html=1;" vertex="1" parent="PZsRNkrMyilEUVOkhPmK-91">
          <mxGeometry y="30" width="140" height="30" as="geometry" />
        </mxCell>
        <mxCell id="PZsRNkrMyilEUVOkhPmK-93" value="- datePaid" style="text;strokeColor=none;fillColor=none;align=left;verticalAlign=middle;spacingLeft=4;spacingRight=4;overflow=hidden;points=[[0,0.5],[1,0.5]];portConstraint=eastwest;rotatable=0;whiteSpace=wrap;html=1;" vertex="1" parent="PZsRNkrMyilEUVOkhPmK-91">
          <mxGeometry y="60" width="140" height="30" as="geometry" />
        </mxCell>
        <mxCell id="PZsRNkrMyilEUVOkhPmK-98" value="- confirmationNumber" style="text;strokeColor=none;fillColor=none;align=left;verticalAlign=middle;spacingLeft=4;spacingRight=4;overflow=hidden;points=[[0,0.5],[1,0.5]];portConstraint=eastwest;rotatable=0;whiteSpace=wrap;html=1;" vertex="1" parent="PZsRNkrMyilEUVOkhPmK-91">
          <mxGeometry y="90" width="140" height="30" as="geometry" />
        </mxCell>
        <mxCell id="PZsRNkrMyilEUVOkhPmK-97" style="edgeStyle=orthogonalEdgeStyle;rounded=0;orthogonalLoop=1;jettySize=auto;html=1;exitX=0;exitY=0.5;exitDx=0;exitDy=0;entryX=1;entryY=0.5;entryDx=0;entryDy=0;endArrow=none;endFill=0;" edge="1" parent="1" source="PZsRNkrMyilEUVOkhPmK-3" target="PZsRNkrMyilEUVOkhPmK-18">
          <mxGeometry relative="1" as="geometry" />
        </mxCell>
        <mxCell id="PZsRNkrMyilEUVOkhPmK-99" value="Attends" style="text;html=1;align=center;verticalAlign=middle;resizable=0;points=[];autosize=1;strokeColor=none;fillColor=none;" vertex="1" parent="1">
          <mxGeometry x="240" y="105" width="60" height="30" as="geometry" />
        </mxCell>
        <mxCell id="PZsRNkrMyilEUVOkhPmK-100" value="1" style="text;html=1;align=center;verticalAlign=middle;resizable=0;points=[];autosize=1;strokeColor=none;fillColor=none;" vertex="1" parent="1">
          <mxGeometry x="200" y="135" width="30" height="30" as="geometry" />
        </mxCell>
        <mxCell id="PZsRNkrMyilEUVOkhPmK-102" value="0 . . *" style="text;html=1;align=center;verticalAlign=middle;resizable=0;points=[];autosize=1;strokeColor=none;fillColor=none;" vertex="1" parent="1">
          <mxGeometry x="300" y="135" width="50" height="30" as="geometry" />
        </mxCell>
        <mxCell id="PZsRNkrMyilEUVOkhPmK-103" value="Books" style="text;html=1;align=center;verticalAlign=middle;resizable=0;points=[];autosize=1;strokeColor=none;fillColor=none;" vertex="1" parent="1">
          <mxGeometry x="420" y="190" width="60" height="30" as="geometry" />
        </mxCell>
        <mxCell id="PZsRNkrMyilEUVOkhPmK-105" value="" style="edgeStyle=none;orthogonalLoop=1;jettySize=auto;html=1;rounded=0;" edge="1" parent="1">
          <mxGeometry width="100" relative="1" as="geometry">
            <mxPoint x="470" y="214.67000000000002" as="sourcePoint" />
            <mxPoint x="470" y="190" as="targetPoint" />
            <Array as="points" />
          </mxGeometry>
        </mxCell>
        <mxCell id="PZsRNkrMyilEUVOkhPmK-106" value="" style="edgeStyle=none;orthogonalLoop=1;jettySize=auto;html=1;rounded=0;" edge="1" parent="1">
          <mxGeometry width="100" relative="1" as="geometry">
            <mxPoint x="250" y="104.67000000000002" as="sourcePoint" />
            <mxPoint x="290" y="104.67" as="targetPoint" />
            <Array as="points" />
          </mxGeometry>
        </mxCell>
        <mxCell id="PZsRNkrMyilEUVOkhPmK-107" value="0 . . *" style="text;html=1;align=center;verticalAlign=middle;resizable=0;points=[];autosize=1;strokeColor=none;fillColor=none;" vertex="1" parent="1">
          <mxGeometry x="370" y="150" width="50" height="30" as="geometry" />
        </mxCell>
        <mxCell id="PZsRNkrMyilEUVOkhPmK-108" value="1" style="text;html=1;align=center;verticalAlign=middle;resizable=0;points=[];autosize=1;strokeColor=none;fillColor=none;" vertex="1" parent="1">
          <mxGeometry x="380" y="230" width="30" height="30" as="geometry" />
        </mxCell>
        <mxCell id="PZsRNkrMyilEUVOkhPmK-109" value="Receives" style="text;html=1;align=center;verticalAlign=middle;resizable=0;points=[];autosize=1;strokeColor=none;fillColor=none;rotation=-35;" vertex="1" parent="1">
          <mxGeometry x="510" y="160" width="70" height="30" as="geometry" />
        </mxCell>
        <mxCell id="PZsRNkrMyilEUVOkhPmK-110" value="" style="edgeStyle=none;orthogonalLoop=1;jettySize=auto;html=1;rounded=0;entryX=0.776;entryY=0.019;entryDx=0;entryDy=0;entryPerimeter=0;exitX=0.212;exitY=-0.015;exitDx=0;exitDy=0;exitPerimeter=0;" edge="1" parent="1" source="PZsRNkrMyilEUVOkhPmK-109" target="PZsRNkrMyilEUVOkhPmK-109">
          <mxGeometry width="100" relative="1" as="geometry">
            <mxPoint x="530" y="180" as="sourcePoint" />
            <mxPoint x="530" y="155.32999999999998" as="targetPoint" />
            <Array as="points" />
          </mxGeometry>
        </mxCell>
        <mxCell id="PZsRNkrMyilEUVOkhPmK-112" value="0 . . *" style="text;html=1;align=center;verticalAlign=middle;resizable=0;points=[];autosize=1;strokeColor=none;fillColor=none;rotation=-30;" vertex="1" parent="1">
          <mxGeometry x="480" y="230" width="50" height="30" as="geometry" />
        </mxCell>
        <mxCell id="PZsRNkrMyilEUVOkhPmK-113" value="0 . . *" style="text;html=1;align=center;verticalAlign=middle;resizable=0;points=[];autosize=1;strokeColor=none;fillColor=none;rotation=-30;" vertex="1" parent="1">
          <mxGeometry x="610" y="150" width="50" height="30" as="geometry" />
        </mxCell>
        <mxCell id="PZsRNkrMyilEUVOkhPmK-114" value="Pays" style="text;html=1;align=center;verticalAlign=middle;resizable=0;points=[];autosize=1;strokeColor=none;fillColor=none;" vertex="1" parent="1">
          <mxGeometry x="245" y="305" width="50" height="30" as="geometry" />
        </mxCell>
        <mxCell id="PZsRNkrMyilEUVOkhPmK-119" value="" style="edgeStyle=none;orthogonalLoop=1;jettySize=auto;html=1;rounded=0;" edge="1" parent="1">
          <mxGeometry width="100" relative="1" as="geometry">
            <mxPoint x="290" y="305" as="sourcePoint" />
            <mxPoint x="250" y="305" as="targetPoint" />
            <Array as="points" />
          </mxGeometry>
        </mxCell>
        <mxCell id="PZsRNkrMyilEUVOkhPmK-120" value="1" style="text;html=1;align=center;verticalAlign=middle;resizable=0;points=[];autosize=1;strokeColor=none;fillColor=none;" vertex="1" parent="1">
          <mxGeometry x="310" y="335" width="30" height="30" as="geometry" />
        </mxCell>
        <mxCell id="PZsRNkrMyilEUVOkhPmK-121" value="0 . . *" style="text;html=1;align=center;verticalAlign=middle;resizable=0;points=[];autosize=1;strokeColor=none;fillColor=none;" vertex="1" parent="1">
          <mxGeometry x="190" y="335" width="50" height="30" as="geometry" />
        </mxCell>
        <mxCell id="PZsRNkrMyilEUVOkhPmK-122" value="Submits" style="text;html=1;align=center;verticalAlign=middle;resizable=0;points=[];autosize=1;strokeColor=none;fillColor=none;" vertex="1" parent="1">
          <mxGeometry x="540" y="305" width="70" height="30" as="geometry" />
        </mxCell>
        <mxCell id="PZsRNkrMyilEUVOkhPmK-127" value="" style="edgeStyle=none;orthogonalLoop=1;jettySize=auto;html=1;rounded=0;" edge="1" parent="1">
          <mxGeometry width="100" relative="1" as="geometry">
            <mxPoint x="870" y="300" as="sourcePoint" />
            <mxPoint x="830" y="300" as="targetPoint" />
            <Array as="points" />
          </mxGeometry>
        </mxCell>
        <mxCell id="PZsRNkrMyilEUVOkhPmK-128" value="" style="edgeStyle=none;orthogonalLoop=1;jettySize=auto;html=1;rounded=0;" edge="1" parent="1">
          <mxGeometry width="100" relative="1" as="geometry">
            <mxPoint x="530" y="630" as="sourcePoint" />
            <mxPoint x="540" y="620" as="targetPoint" />
            <Array as="points" />
          </mxGeometry>
        </mxCell>
        <mxCell id="PZsRNkrMyilEUVOkhPmK-129" value="" style="edgeStyle=none;orthogonalLoop=1;jettySize=auto;html=1;rounded=0;entryX=1;entryY=1;entryDx=0;entryDy=0;entryPerimeter=0;" edge="1" parent="1" target="PZsRNkrMyilEUVOkhPmK-140">
          <mxGeometry width="100" relative="1" as="geometry">
            <mxPoint x="480" y="430" as="sourcePoint" />
            <mxPoint x="460" y="460" as="targetPoint" />
            <Array as="points" />
          </mxGeometry>
        </mxCell>
        <mxCell id="PZsRNkrMyilEUVOkhPmK-130" value="" style="edgeStyle=none;orthogonalLoop=1;jettySize=auto;html=1;rounded=0;entryX=0.899;entryY=0.006;entryDx=0;entryDy=0;entryPerimeter=0;" edge="1" parent="1" target="PZsRNkrMyilEUVOkhPmK-134">
          <mxGeometry width="100" relative="1" as="geometry">
            <mxPoint x="520" y="460" as="sourcePoint" />
            <mxPoint x="560" y="490" as="targetPoint" />
            <Array as="points" />
          </mxGeometry>
        </mxCell>
        <mxCell id="PZsRNkrMyilEUVOkhPmK-131" value="" style="edgeStyle=none;orthogonalLoop=1;jettySize=auto;html=1;rounded=0;" edge="1" parent="1">
          <mxGeometry width="100" relative="1" as="geometry">
            <mxPoint x="550" y="303.89" as="sourcePoint" />
            <mxPoint x="590" y="303.89" as="targetPoint" />
            <Array as="points" />
          </mxGeometry>
        </mxCell>
        <mxCell id="PZsRNkrMyilEUVOkhPmK-132" value="1" style="text;html=1;align=center;verticalAlign=middle;resizable=0;points=[];autosize=1;strokeColor=none;fillColor=none;" vertex="1" parent="1">
          <mxGeometry x="500" y="335" width="30" height="30" as="geometry" />
        </mxCell>
        <mxCell id="PZsRNkrMyilEUVOkhPmK-133" value="0 . . *" style="text;html=1;align=center;verticalAlign=middle;resizable=0;points=[];autosize=1;strokeColor=none;fillColor=none;" vertex="1" parent="1">
          <mxGeometry x="600" y="335" width="50" height="30" as="geometry" />
        </mxCell>
        <mxCell id="PZsRNkrMyilEUVOkhPmK-134" value="Rents" style="text;html=1;align=center;verticalAlign=middle;resizable=0;points=[];autosize=1;strokeColor=none;fillColor=none;rotation=45;" vertex="1" parent="1">
          <mxGeometry x="500" y="470" width="50" height="30" as="geometry" />
        </mxCell>
        <mxCell id="PZsRNkrMyilEUVOkhPmK-136" value="1" style="text;html=1;align=center;verticalAlign=middle;resizable=0;points=[];autosize=1;strokeColor=none;fillColor=none;rotation=45;" vertex="1" parent="1">
          <mxGeometry x="470" y="380" width="30" height="30" as="geometry" />
        </mxCell>
        <mxCell id="PZsRNkrMyilEUVOkhPmK-137" value="0 . . *" style="text;html=1;align=center;verticalAlign=middle;resizable=0;points=[];autosize=1;strokeColor=none;fillColor=none;rotation=45;" vertex="1" parent="1">
          <mxGeometry x="610" y="510" width="50" height="30" as="geometry" />
        </mxCell>
        <mxCell id="PZsRNkrMyilEUVOkhPmK-138" value="1" style="text;html=1;align=center;verticalAlign=middle;resizable=0;points=[];autosize=1;strokeColor=none;fillColor=none;" vertex="1" parent="1">
          <mxGeometry x="380" y="380" width="30" height="30" as="geometry" />
        </mxCell>
        <mxCell id="PZsRNkrMyilEUVOkhPmK-139" value="1 . . *" style="text;html=1;align=center;verticalAlign=middle;resizable=0;points=[];autosize=1;strokeColor=none;fillColor=none;" vertex="1" parent="1">
          <mxGeometry x="370" y="440" width="50" height="30" as="geometry" />
        </mxCell>
        <mxCell id="PZsRNkrMyilEUVOkhPmK-140" value="Submits" style="text;html=1;align=center;verticalAlign=middle;resizable=0;points=[];autosize=1;strokeColor=none;fillColor=none;" vertex="1" parent="1">
          <mxGeometry x="410" y="430" width="70" height="30" as="geometry" />
        </mxCell>
        <mxCell id="PZsRNkrMyilEUVOkhPmK-145" value="issues" style="text;html=1;align=center;verticalAlign=middle;resizable=0;points=[];autosize=1;strokeColor=none;fillColor=none;" vertex="1" parent="1">
          <mxGeometry x="-40" y="495" width="60" height="30" as="geometry" />
        </mxCell>
        <mxCell id="PZsRNkrMyilEUVOkhPmK-146" value="1 . . *" style="text;html=1;align=center;verticalAlign=middle;resizable=0;points=[];autosize=1;strokeColor=none;fillColor=none;" vertex="1" parent="1">
          <mxGeometry x="369.63" y="540" width="50" height="30" as="geometry" />
        </mxCell>
        <mxCell id="PZsRNkrMyilEUVOkhPmK-147" value="1" style="text;html=1;align=center;verticalAlign=middle;resizable=0;points=[];autosize=1;strokeColor=none;fillColor=none;" vertex="1" parent="1">
          <mxGeometry x="390" y="690" width="30" height="30" as="geometry" />
        </mxCell>
        <mxCell id="PZsRNkrMyilEUVOkhPmK-148" value="On" style="text;html=1;align=center;verticalAlign=middle;resizable=0;points=[];autosize=1;strokeColor=none;fillColor=none;rotation=-45;" vertex="1" parent="1">
          <mxGeometry x="520" y="620" width="40" height="30" as="geometry" />
        </mxCell>
        <mxCell id="PZsRNkrMyilEUVOkhPmK-149" value="1" style="text;html=1;align=center;verticalAlign=middle;resizable=0;points=[];autosize=1;strokeColor=none;fillColor=none;rotation=-45;" vertex="1" parent="1">
          <mxGeometry x="620" y="570" width="30" height="30" as="geometry" />
        </mxCell>
        <mxCell id="PZsRNkrMyilEUVOkhPmK-150" value="1 . . *" style="text;html=1;align=center;verticalAlign=middle;resizable=0;points=[];autosize=1;strokeColor=none;fillColor=none;rotation=-45;" vertex="1" parent="1">
          <mxGeometry x="470" y="705" width="50" height="30" as="geometry" />
        </mxCell>
        <mxCell id="PZsRNkrMyilEUVOkhPmK-151" value="IN" style="text;html=1;align=center;verticalAlign=middle;resizable=0;points=[];autosize=1;strokeColor=none;fillColor=none;" vertex="1" parent="1">
          <mxGeometry x="720" y="680" width="40" height="30" as="geometry" />
        </mxCell>
        <mxCell id="PZsRNkrMyilEUVOkhPmK-153" value="" style="edgeStyle=none;orthogonalLoop=1;jettySize=auto;html=1;rounded=0;" edge="1" parent="1">
          <mxGeometry width="100" relative="1" as="geometry">
            <mxPoint x="759" y="680" as="sourcePoint" />
            <mxPoint x="759.37" y="710" as="targetPoint" />
            <Array as="points" />
          </mxGeometry>
        </mxCell>
        <mxCell id="PZsRNkrMyilEUVOkhPmK-154" value="1 . .&amp;nbsp; *" style="text;html=1;align=center;verticalAlign=middle;resizable=0;points=[];autosize=1;strokeColor=none;fillColor=none;" vertex="1" parent="1">
          <mxGeometry x="675" y="665" width="50" height="30" as="geometry" />
        </mxCell>
        <mxCell id="PZsRNkrMyilEUVOkhPmK-155" value="1" style="text;html=1;align=center;verticalAlign=middle;resizable=0;points=[];autosize=1;strokeColor=none;fillColor=none;" vertex="1" parent="1">
          <mxGeometry x="675" y="705" width="30" height="30" as="geometry" />
        </mxCell>
        <mxCell id="PZsRNkrMyilEUVOkhPmK-156" value="handles" style="text;html=1;align=center;verticalAlign=middle;resizable=0;points=[];autosize=1;strokeColor=none;fillColor=none;" vertex="1" parent="1">
          <mxGeometry x="820" y="305" width="70" height="30" as="geometry" />
        </mxCell>
        <mxCell id="PZsRNkrMyilEUVOkhPmK-157" value="" style="edgeStyle=none;orthogonalLoop=1;jettySize=auto;html=1;rounded=0;" edge="1" parent="1">
          <mxGeometry width="100" relative="1" as="geometry">
            <mxPoint x="759.13" y="430" as="sourcePoint" />
            <mxPoint x="759.5" y="460" as="targetPoint" />
            <Array as="points" />
          </mxGeometry>
        </mxCell>
        <mxCell id="PZsRNkrMyilEUVOkhPmK-158" value="For" style="text;html=1;align=center;verticalAlign=middle;resizable=0;points=[];autosize=1;strokeColor=none;fillColor=none;" vertex="1" parent="1">
          <mxGeometry x="718.76" y="430" width="40" height="30" as="geometry" />
        </mxCell>
        <mxCell id="PZsRNkrMyilEUVOkhPmK-159" value="1" style="text;html=1;align=center;verticalAlign=middle;resizable=0;points=[];autosize=1;strokeColor=none;fillColor=none;" vertex="1" parent="1">
          <mxGeometry x="688.76" y="450" width="30" height="30" as="geometry" />
        </mxCell>
        <mxCell id="PZsRNkrMyilEUVOkhPmK-160" value="0 . . *" style="text;html=1;align=center;verticalAlign=middle;resizable=0;points=[];autosize=1;strokeColor=none;fillColor=none;" vertex="1" parent="1">
          <mxGeometry x="678.76" y="410" width="50" height="30" as="geometry" />
        </mxCell>
        <mxCell id="PZsRNkrMyilEUVOkhPmK-162" value="1" style="text;html=1;align=center;verticalAlign=middle;resizable=0;points=[];autosize=1;strokeColor=none;fillColor=none;" vertex="1" parent="1">
          <mxGeometry x="-70" y="525" width="30" height="30" as="geometry" />
        </mxCell>
        <mxCell id="PZsRNkrMyilEUVOkhPmK-163" value="1 . . *" style="text;html=1;align=center;verticalAlign=middle;resizable=0;points=[];autosize=1;strokeColor=none;fillColor=none;" vertex="1" parent="1">
          <mxGeometry y="525" width="50" height="30" as="geometry" />
        </mxCell>
        <mxCell id="PZsRNkrMyilEUVOkhPmK-165" style="rounded=0;orthogonalLoop=1;jettySize=auto;html=1;exitX=1;exitY=0.5;exitDx=0;exitDy=0;entryX=0;entryY=0.5;entryDx=0;entryDy=0;endArrow=none;endFill=0;" edge="1" parent="1">
          <mxGeometry relative="1" as="geometry">
            <mxPoint x="-70" y="330" as="sourcePoint" />
            <mxPoint x="50" y="330" as="targetPoint" />
          </mxGeometry>
        </mxCell>
        <mxCell id="PZsRNkrMyilEUVOkhPmK-166" value="" style="edgeStyle=none;orthogonalLoop=1;jettySize=auto;html=1;rounded=0;" edge="1" parent="1">
          <mxGeometry width="100" relative="1" as="geometry">
            <mxPoint x="-29.629999999999995" y="300" as="sourcePoint" />
            <mxPoint x="9.629999999999995" y="300" as="targetPoint" />
            <Array as="points" />
          </mxGeometry>
        </mxCell>
        <mxCell id="PZsRNkrMyilEUVOkhPmK-167" value="For" style="text;html=1;align=center;verticalAlign=middle;resizable=0;points=[];autosize=1;strokeColor=none;fillColor=none;" vertex="1" parent="1">
          <mxGeometry x="-30" y="300" width="40" height="30" as="geometry" />
        </mxCell>
        <mxCell id="PZsRNkrMyilEUVOkhPmK-168" value="1" style="text;html=1;align=center;verticalAlign=middle;resizable=0;points=[];autosize=1;strokeColor=none;fillColor=none;" vertex="1" parent="1">
          <mxGeometry x="-70" y="330" width="30" height="30" as="geometry" />
        </mxCell>
        <mxCell id="PZsRNkrMyilEUVOkhPmK-169" value="1 . . *" style="text;html=1;align=center;verticalAlign=middle;resizable=0;points=[];autosize=1;strokeColor=none;fillColor=none;" vertex="1" parent="1">
          <mxGeometry y="330" width="50" height="30" as="geometry" />
        </mxCell>
        <mxCell id="PZsRNkrMyilEUVOkhPmK-171" value="" style="edgeStyle=none;orthogonalLoop=1;jettySize=auto;html=1;rounded=0;" edge="1" parent="1">
          <mxGeometry width="100" relative="1" as="geometry">
            <mxPoint x="160" y="434.91999999999996" as="sourcePoint" />
            <mxPoint x="160" y="455.09" as="targetPoint" />
            <Array as="points" />
          </mxGeometry>
        </mxCell>
        <mxCell id="PZsRNkrMyilEUVOkhPmK-172" value="For" style="text;html=1;align=center;verticalAlign=middle;resizable=0;points=[];autosize=1;strokeColor=none;fillColor=none;" vertex="1" parent="1">
          <mxGeometry x="120" y="430" width="40" height="30" as="geometry" />
        </mxCell>
        <mxCell id="PZsRNkrMyilEUVOkhPmK-173" value="1" style="text;html=1;align=center;verticalAlign=middle;resizable=0;points=[];autosize=1;strokeColor=none;fillColor=none;" vertex="1" parent="1">
          <mxGeometry x="90" y="410" width="30" height="30" as="geometry" />
        </mxCell>
        <mxCell id="PZsRNkrMyilEUVOkhPmK-175" value="1" style="text;html=1;align=center;verticalAlign=middle;resizable=0;points=[];autosize=1;strokeColor=none;fillColor=none;" vertex="1" parent="1">
          <mxGeometry x="90" y="445" width="30" height="30" as="geometry" />
        </mxCell>
        <mxCell id="PZsRNkrMyilEUVOkhPmK-176" value="" style="edgeStyle=none;orthogonalLoop=1;jettySize=auto;html=1;rounded=0;" edge="1" parent="1">
          <mxGeometry width="100" relative="1" as="geometry">
            <mxPoint x="459.63" y="614.92" as="sourcePoint" />
            <mxPoint x="459.63" y="635.0899999999999" as="targetPoint" />
            <Array as="points" />
          </mxGeometry>
        </mxCell>
        <mxCell id="PZsRNkrMyilEUVOkhPmK-177" value="For" style="text;html=1;align=center;verticalAlign=middle;resizable=0;points=[];autosize=1;strokeColor=none;fillColor=none;" vertex="1" parent="1">
          <mxGeometry x="419.63" y="610" width="40" height="30" as="geometry" />
        </mxCell>
        <mxCell id="PZsRNkrMyilEUVOkhPmK-178" value="" style="edgeStyle=none;orthogonalLoop=1;jettySize=auto;html=1;rounded=0;" edge="1" parent="1">
          <mxGeometry width="100" relative="1" as="geometry">
            <mxPoint x="159.39" y="639.92" as="sourcePoint" />
            <mxPoint x="159.39" y="660.0899999999999" as="targetPoint" />
            <Array as="points" />
          </mxGeometry>
        </mxCell>
        <mxCell id="PZsRNkrMyilEUVOkhPmK-179" value="Has" style="text;html=1;align=center;verticalAlign=middle;resizable=0;points=[];autosize=1;strokeColor=none;fillColor=none;" vertex="1" parent="1">
          <mxGeometry x="119.39" y="635" width="40" height="30" as="geometry" />
        </mxCell>
        <mxCell id="PZsRNkrMyilEUVOkhPmK-180" value="0 . . *" style="text;html=1;align=center;verticalAlign=middle;resizable=0;points=[];autosize=1;strokeColor=none;fillColor=none;" vertex="1" parent="1">
          <mxGeometry x="70" y="570" width="50" height="30" as="geometry" />
        </mxCell>
        <mxCell id="PZsRNkrMyilEUVOkhPmK-181" value="0 . . *" style="text;html=1;align=center;verticalAlign=middle;resizable=0;points=[];autosize=1;strokeColor=none;fillColor=none;" vertex="1" parent="1">
          <mxGeometry x="69.39" y="705" width="50" height="30" as="geometry" />
        </mxCell>
        <mxCell id="PZsRNkrMyilEUVOkhPmK-182" value="" style="edgeStyle=none;orthogonalLoop=1;jettySize=auto;html=1;rounded=0;entryX=0.825;entryY=0.04;entryDx=0;entryDy=0;entryPerimeter=0;" edge="1" parent="1" target="PZsRNkrMyilEUVOkhPmK-183">
          <mxGeometry width="100" relative="1" as="geometry">
            <mxPoint x="295" y="609.9999999999999" as="sourcePoint" />
            <mxPoint x="305" y="620" as="targetPoint" />
            <Array as="points" />
          </mxGeometry>
        </mxCell>
        <mxCell id="PZsRNkrMyilEUVOkhPmK-183" value="For" style="text;html=1;align=center;verticalAlign=middle;resizable=0;points=[];autosize=1;strokeColor=none;fillColor=none;rotation=40;" vertex="1" parent="1">
          <mxGeometry x="270" y="610" width="40" height="30" as="geometry" />
        </mxCell>
        <mxCell id="PZsRNkrMyilEUVOkhPmK-184" value="1" style="text;html=1;align=center;verticalAlign=middle;resizable=0;points=[];autosize=1;strokeColor=none;fillColor=none;rotation=45;" vertex="1" parent="1">
          <mxGeometry x="330" y="705" width="30" height="30" as="geometry" />
        </mxCell>
        <mxCell id="PZsRNkrMyilEUVOkhPmK-185" value="1 . . *" style="text;html=1;align=center;verticalAlign=middle;resizable=0;points=[];autosize=1;strokeColor=none;fillColor=none;rotation=45;" vertex="1" parent="1">
          <mxGeometry x="180" y="580" width="50" height="30" as="geometry" />
        </mxCell>
        <mxCell id="PZsRNkrMyilEUVOkhPmK-186" value="1 . . *" style="text;html=1;align=center;verticalAlign=middle;resizable=0;points=[];autosize=1;strokeColor=none;fillColor=none;" vertex="1" parent="1">
          <mxGeometry x="610" y="920" width="50" height="30" as="geometry" />
        </mxCell>
        <mxCell id="PZsRNkrMyilEUVOkhPmK-187" value="Charged on" style="text;html=1;align=center;verticalAlign=middle;resizable=0;points=[];autosize=1;strokeColor=none;fillColor=none;" vertex="1" parent="1">
          <mxGeometry x="380" y="920" width="90" height="30" as="geometry" />
        </mxCell>
        <mxCell id="PZsRNkrMyilEUVOkhPmK-188" value="" style="edgeStyle=none;orthogonalLoop=1;jettySize=auto;html=1;rounded=0;" edge="1" parent="1">
          <mxGeometry width="100" relative="1" as="geometry">
            <mxPoint x="445" y="920" as="sourcePoint" />
            <mxPoint x="405" y="920" as="targetPoint" />
            <Array as="points" />
          </mxGeometry>
        </mxCell>
        <mxCell id="PZsRNkrMyilEUVOkhPmK-189" value="1" style="text;html=1;align=center;verticalAlign=middle;resizable=0;points=[];autosize=1;strokeColor=none;fillColor=none;" vertex="1" parent="1">
          <mxGeometry x="180" y="920" width="30" height="30" as="geometry" />
        </mxCell>
      </root>
    </mxGraphModel>
  </diagram>
</mxfile>
